<svg width="98" height="69" viewBox="0 0 98 69" fill="none" xmlns="http://www.w3.org/2000/svg">
<path d="M0 35.9375C0 35.1823 0.078125 34.6354 0.234375 34.2969C0.390625 33.9844 0.585938 33.8151 0.820313 33.7891C1.05469 33.7891 1.32813 33.8932 1.64063 34.1016C1.92708 34.3099 2.2526 34.5443 2.61719 34.8047C2.95573 35.0651 3.30729 35.3125 3.67188 35.5469C4.01042 35.8073 4.34896 35.9635 4.6875 36.0156C5.41667 36.0156 6.01563 35.7552 6.48438 35.2344C6.95313 34.7396 7.31771 34.1276 7.57813 33.3984C7.86458 32.6953 8.04688 31.9531 8.125 31.1719C8.22917 30.3906 8.28125 29.7396 8.28125 29.2188C8.28125 29.1667 8.28125 29.0885 8.28125 28.9844C8.28125 28.8542 8.25521 28.5938 8.20312 28.2031C8.17708 27.8125 8.13802 27.2396 8.08594 26.4844C8.03385 25.7031 7.94271 24.6615 7.8125 23.3594C7.70833 22.0573 7.5651 20.4297 7.38281 18.4766C7.22656 16.4974 7.01823 14.1016 6.75781 11.2891C6.75781 10.8984 6.84896 10.5729 7.03125 10.3125C7.23958 10.0521 7.55208 9.92188 7.96875 9.92188C8.48958 9.92188 8.91927 10 9.25781 10.1562C9.59635 10.2865 9.90885 10.599 10.1953 11.0938C10.1953 11.4062 10.2083 11.7578 10.2344 12.1484C10.2604 12.513 10.2995 12.9948 10.3516 13.5938C10.4036 14.1667 10.4688 14.8958 10.5469 15.7812C10.651 16.6406 10.7552 17.7083 10.8594 18.9844C10.9896 20.2344 11.1198 21.7448 11.25 23.5156C11.4062 25.2604 11.5625 27.3047 11.7188 29.6484C11.7188 30.5078 11.6406 31.3932 11.4844 32.3047C11.3542 33.2161 11.1068 34.0755 10.7422 34.8828C10.3776 35.7161 9.88281 36.4453 9.25781 37.0703C8.63281 37.7214 7.85156 38.1901 6.91406 38.4766C6.75781 38.4245 6.60156 38.4375 6.44531 38.5156C6.28906 38.5938 6.13281 38.6328 5.97656 38.6328C5.45573 38.6328 4.89583 38.5807 4.29688 38.4766C3.69792 38.3724 3.11198 38.2161 2.53906 38.0078C1.96615 37.7995 1.45833 37.513 1.01563 37.1484C0.546875 36.8099 0.208333 36.4062 0 35.9375ZM4.92188 1.05469C4.92188 0.638021 5.07812 0.364583 5.39062 0.234375C5.72917 0.078125 6.05469 0 6.36719 0C6.86198 0 7.33073 0.143229 7.77344 0.429687C8.21615 0.716146 8.4375 1.15885 8.4375 1.75781C8.4375 2.09635 8.25521 2.34375 7.89062 2.5C7.55208 2.63021 7.2526 2.69531 6.99219 2.69531C6.8099 2.69531 6.60156 2.65625 6.36719 2.57812C6.13281 2.47396 5.89844 2.34375 5.66406 2.1875C5.45573 2.03125 5.27344 1.86198 5.11719 1.67969C4.98698 1.47135 4.92188 1.26302 4.92188 1.05469Z" fill="white"/>
<path d="M13.3313 22.4609C12.8365 22.2786 12.3807 22.0573 11.9641 21.7969C11.5734 21.5365 11.3781 21.1068 11.3781 20.5078C11.3781 20.3516 11.4172 20.2474 11.4953 20.1953C11.5734 20.1432 11.6385 20.0651 11.6906 19.9609C11.7427 19.8828 11.8469 19.7396 12.0031 19.5312C12.1594 19.3229 12.3286 19.1016 12.5109 18.8672C12.6932 18.6068 12.8625 18.3724 13.0188 18.1641C13.175 17.9297 13.2792 17.7734 13.3313 17.6953C13.3313 17.3568 13.3052 16.9531 13.2531 16.4844C13.2271 15.9896 13.2401 15.5339 13.2922 15.1172C13.3703 14.6745 13.5266 14.3099 13.7609 14.0234C13.9953 13.7109 14.3859 13.5547 14.9328 13.5547C15.2453 13.5547 15.5057 13.6719 15.7141 13.9062C15.9224 14.1146 16.1828 14.2188 16.4953 14.2188H16.6516C17.7193 13.3854 18.813 12.6562 19.9328 12.0312C21.0786 11.3802 22.3547 11.0547 23.7609 11.0547C24.6724 11.0547 25.4146 11.3281 25.9875 11.875C26.5865 12.3958 26.8859 13.138 26.8859 14.1016C26.8859 15.2995 26.6125 16.5365 26.0656 17.8125C25.5187 19.0885 24.8286 20.3385 23.9953 21.5625C23.188 22.7604 22.3026 23.8932 21.3391 24.9609C20.4016 26.0286 19.5422 26.9531 18.7609 27.7344C18.6828 27.8385 18.5656 27.9557 18.4094 28.0859C18.2531 28.1901 18.1099 28.3073 17.9797 28.4375C17.8234 28.5677 17.6542 28.724 17.4719 28.9062L17.1594 37.8906C17.1594 38.125 17.1464 38.3724 17.1203 38.6328C17.1203 38.8932 17.0682 39.1276 16.9641 39.3359C16.8859 39.5703 16.7557 39.7526 16.5734 39.8828C16.4172 40.0391 16.1828 40.1172 15.8703 40.1172C15.7141 40.1172 15.5057 40.0781 15.2453 40C14.9849 39.9479 14.7375 39.8568 14.5031 39.7266C14.2688 39.5964 14.0604 39.4401 13.8781 39.2578C13.7219 39.0755 13.6438 38.8672 13.6438 38.6328L13.3313 22.4609ZM16.9641 24.9219H17.1203C17.1464 24.9219 17.2245 24.8438 17.3547 24.6875C17.5109 24.5312 17.6802 24.349 17.8625 24.1406C18.0708 23.9323 18.2661 23.724 18.4484 23.5156C18.6568 23.2812 18.813 23.099 18.9172 22.9688C19.6984 22.3958 20.4146 21.6797 21.0656 20.8203C21.7167 19.9609 22.2375 19.1016 22.6281 18.2422C23.0448 17.3568 23.2922 16.5625 23.3703 15.8594C23.4745 15.1562 23.3573 14.6745 23.0187 14.4141C22.7062 14.1276 22.1464 14.1536 21.3391 14.4922C20.5578 14.8307 19.4901 15.612 18.1359 16.8359C17.8234 17.0964 17.537 17.3958 17.2766 17.7344C17.0161 18.0729 16.8599 18.4505 16.8078 18.8672L16.9641 24.9219Z" fill="white"/>
<path d="M43.6937 18.3984C43.6417 18.8672 43.5766 19.2318 43.4984 19.4922C43.4464 19.7526 43.3422 19.987 43.1859 20.1953C43.0297 20.4036 42.8083 20.625 42.5219 20.8594C42.2354 21.0677 41.8448 21.3802 41.35 21.7969C40.8552 22.1875 40.2432 22.7083 39.5141 23.3594C38.7849 24.0104 37.8995 24.8568 36.8578 25.8984C36.4411 26.2891 36.0115 26.6927 35.5687 27.1094C35.126 27.526 34.6573 27.9036 34.1625 28.2422C33.6937 28.5547 33.199 28.8151 32.6781 29.0234C32.1573 29.2318 31.6104 29.3359 31.0375 29.3359C29.9177 29.3359 29.0974 28.9583 28.5766 28.2031C28.0557 27.4479 27.7953 26.5755 27.7953 25.5859C27.7953 24.9349 27.8083 24.388 27.8344 23.9453C27.8865 23.5026 27.9906 22.9297 28.1469 22.2266C27.8604 21.9661 27.613 21.7448 27.4047 21.5625C27.1964 21.3542 27.0922 21.0807 27.0922 20.7422C27.0922 20.4297 27.1573 20.2214 27.2875 20.1172C27.4438 20.013 27.613 19.9479 27.7953 19.9219C28.0036 19.8698 28.199 19.8177 28.3813 19.7656C28.5635 19.7135 28.6938 19.6094 28.7719 19.4531C28.824 19.2969 28.9151 19.0104 29.0453 18.5938C29.2016 18.1771 29.3578 17.7474 29.5141 17.3047C29.6703 16.8359 29.8135 16.4062 29.9438 16.0156C30.1 15.599 30.2042 15.3125 30.2563 15.1562C30.4385 14.7135 30.6339 14.2708 30.8422 13.8281C31.0766 13.3594 31.337 12.9427 31.6234 12.5781C31.9359 12.2135 32.2875 11.9141 32.6781 11.6797C33.0948 11.4453 33.5766 11.3281 34.1234 11.3281C34.4359 11.3281 34.8135 11.4714 35.2562 11.7578C35.725 12.0443 36.1677 12.3958 36.5844 12.8125C37.001 13.2031 37.3526 13.6198 37.6391 14.0625C37.9255 14.5052 38.0687 14.8828 38.0687 15.1953C38.0687 15.5859 37.9776 15.9505 37.7953 16.2891C37.613 16.6016 37.3786 16.901 37.0922 17.1875C36.8318 17.4479 36.5453 17.6953 36.2328 17.9297C35.9203 18.1641 35.6339 18.3854 35.3734 18.5938C35.3474 18.5938 35.2953 18.6198 35.2172 18.6719C35.1391 18.724 35.074 18.763 35.0219 18.7891C34.9958 18.8151 34.9307 18.8802 34.8266 18.9844C34.7484 19.0625 34.6573 19.1536 34.5531 19.2578C34.449 19.362 34.3448 19.4661 34.2406 19.5703C34.1625 19.6745 34.1104 19.7396 34.0844 19.7656C34.0062 19.8438 33.85 19.974 33.6156 20.1562C33.4073 20.3125 33.1729 20.4948 32.9125 20.7031C32.6521 20.8854 32.4047 21.0677 32.1703 21.25C31.962 21.4062 31.8188 21.5104 31.7406 21.5625L31.5844 21.875C31.5323 21.9792 31.4802 22.2135 31.4281 22.5781C31.4021 22.9167 31.363 23.3073 31.3109 23.75C31.2589 24.1927 31.2068 24.6484 31.1547 25.1172C31.1286 25.5599 31.1156 25.9245 31.1156 26.2109C31.1156 26.237 31.1286 26.263 31.1547 26.2891C31.2068 26.3411 31.2458 26.3672 31.2719 26.3672C31.4802 26.3672 31.6755 26.276 31.8578 26.0938C32.0401 25.9115 32.2354 25.7812 32.4437 25.7031L38.6937 19.9219L40.2953 17.4609C40.4255 17.2786 40.6729 17.0833 41.0375 16.875C41.4281 16.6406 41.8187 16.5234 42.2094 16.5234C42.6 16.4974 42.9385 16.6146 43.225 16.875C43.5375 17.1354 43.6937 17.6432 43.6937 18.3984ZM35.1 15.3516C35.2302 15.2474 35.2823 15.0911 35.2562 14.8828C35.2302 14.6745 35.1521 14.4922 35.0219 14.3359C34.9177 14.1797 34.7745 14.0885 34.5922 14.0625C34.4099 14.0104 34.2406 14.1016 34.0844 14.3359C34.0062 14.4401 33.863 14.6484 33.6547 14.9609C33.4724 15.2734 33.2771 15.599 33.0687 15.9375C32.8865 16.25 32.7302 16.5234 32.6 16.7578C32.4698 16.9922 32.4437 17.0833 32.5219 17.0312L35.1 15.3516Z" fill="white"/>
<path d="M45.4625 43.125C45.3583 42.8385 45.3583 42.513 45.4625 42.1484C45.5927 41.7839 45.8401 41.5495 46.2047 41.4453C46.8036 41.7057 47.4286 41.875 48.0797 41.9531C48.7307 42.0312 49.3818 42.0443 50.0328 41.9922C50.7099 41.9401 51.374 41.8359 52.025 41.6797C52.676 41.5234 53.301 41.3411 53.9 41.1328C54.499 40.638 54.9156 39.987 55.15 39.1797C55.3844 38.3984 55.4755 37.3177 55.4234 35.9375C55.3714 34.5833 55.1891 32.8776 54.8766 30.8203C54.5901 28.7891 54.2125 26.2891 53.7438 23.3203C53.7438 23.2422 53.7438 23.125 53.7438 22.9688C53.7698 22.8125 53.7698 22.6693 53.7438 22.5391C53.7177 22.3828 53.6656 22.2656 53.5875 22.1875C53.5354 22.1094 53.4573 22.1094 53.3531 22.1875C53.0146 22.8385 52.6109 23.5547 52.1422 24.3359C51.6995 25.0911 51.1786 25.8073 50.5797 26.4844C50.0068 27.1354 49.3557 27.6823 48.6266 28.125C47.9234 28.5677 47.1292 28.7891 46.2438 28.7891C45.4625 28.7891 44.7724 28.5677 44.1734 28.125C43.6005 27.6562 43.3141 26.9922 43.3141 26.1328C43.3141 25.4818 43.4443 24.6615 43.7047 23.6719C43.9911 22.6823 44.3688 21.6406 44.8375 20.5469C45.3063 19.4271 45.8531 18.3203 46.4781 17.2266C47.1031 16.1328 47.7542 15.1432 48.4313 14.2578C49.1083 13.3724 49.7984 12.6562 50.5016 12.1094C51.2047 11.5365 51.8818 11.25 52.5328 11.25C52.7932 11.25 53.1318 11.3021 53.5484 11.4062C53.9911 11.4844 54.4078 11.6146 54.7984 11.7969C55.2151 11.9792 55.5667 12.1875 55.8531 12.4219C56.1656 12.6562 56.3219 12.9297 56.3219 13.2422V16.4062L58.8609 34.8438C58.8609 35.8854 58.8349 36.875 58.7828 37.8125C58.7568 38.776 58.5875 39.6615 58.275 40.4688C57.9885 41.276 57.5198 41.9922 56.8688 42.6172C56.2177 43.2422 55.2802 43.75 54.0563 44.1406C53.9 44.2188 53.5745 44.2839 53.0797 44.3359C52.5849 44.388 52.012 44.4271 51.3609 44.4531C50.7359 44.4792 50.0589 44.4792 49.3297 44.4531C48.6266 44.4271 47.9755 44.362 47.3766 44.2578C46.8036 44.1797 46.3349 44.0495 45.9703 43.8672C45.6057 43.6849 45.4365 43.4375 45.4625 43.125ZM51.5563 14.7266C51.2958 15.013 50.9443 15.4688 50.5016 16.0938C50.0849 16.7188 49.6552 17.4089 49.2125 18.1641C48.7698 18.9193 48.3271 19.7135 47.8844 20.5469C47.4677 21.3542 47.1292 22.1094 46.8688 22.8125C46.6083 23.5156 46.4391 24.1146 46.3609 24.6094C46.3089 25.1042 46.426 25.4036 46.7125 25.5078C47.2594 25.2214 47.8453 24.7526 48.4703 24.1016C49.0953 23.4245 49.6813 22.6823 50.2281 21.875C50.801 21.0417 51.2958 20.1953 51.7125 19.3359C52.1552 18.4505 52.4547 17.6562 52.6109 16.9531C52.7932 16.25 52.8063 15.6901 52.65 15.2734C52.5198 14.8307 52.1552 14.6484 51.5563 14.7266Z" fill="white"/>
<path d="M22.8711 42.8833C22.8711 42.063 23.1641 41.3013 23.75 40.5981C24.3945 39.895 25.127 39.5435 25.9473 39.5435C26.9434 39.5435 27.7344 39.8071 28.3203 40.3345C28.9648 40.8618 29.5801 41.4478 30.166 42.0923V42.356C30.166 43.3521 29.8145 44.2603 29.1113 45.0806C28.4668 45.8423 27.5879 46.2231 26.4746 46.2231C25.7129 46.2231 24.9219 45.8716 24.1016 45.1685C23.2812 44.4653 22.8711 43.7036 22.8711 42.8833Z" fill="#FFEA00"/>
<path d="M35.0311 55.6778C34.6665 55.6776 34.341 55.7685 34.0544 55.9506C33.7678 56.1327 33.4292 56.2237 33.0386 56.2234C32.9865 56.2234 32.8433 56.2233 32.6089 56.2232C32.4006 56.197 32.2704 56.1839 32.2183 56.1838C32.1142 56.0536 31.9971 55.9493 31.8669 55.8711C31.7368 55.7929 31.6066 55.7147 31.4765 55.6365C31.3463 55.5323 31.2292 55.415 31.1251 55.2847C31.0471 55.1545 31.0081 54.9721 31.0083 54.7378C31.0085 54.3471 31.165 54.0347 31.4776 53.8006C31.7903 53.5403 32.155 53.3192 32.5718 53.1372C32.9886 52.9552 33.4054 52.7862 33.8221 52.6302C34.2649 52.4742 34.6166 52.2921 34.8772 52.084L34.8782 50.3652C34.8795 48.4381 34.7895 46.511 34.6085 44.5838C34.4274 42.6306 34.3375 40.7034 34.3387 38.8024C34.339 38.2815 34.4695 37.9431 34.73 37.787C34.9905 37.6309 35.3421 37.553 35.7848 37.5533C36.3056 37.5536 36.6831 37.7101 36.9173 38.0228C37.1776 38.3094 37.3596 38.6741 37.4635 39.1169C37.5674 39.5336 37.6192 39.9894 37.6189 40.4841C37.6186 40.9529 37.6314 41.3566 37.6572 41.6951C37.657 42.0336 37.6826 42.6326 37.7342 43.492C37.7857 44.3514 37.8372 45.2629 37.8887 46.2265C37.9402 47.1901 37.9917 48.1016 38.0432 48.961C38.0947 49.8204 38.1334 50.4194 38.1592 50.7579C38.2634 50.732 38.4588 50.667 38.7453 50.563C39.0579 50.433 39.3835 50.316 39.7221 50.212C40.0607 50.0821 40.3733 49.9651 40.6598 49.8611C40.9724 49.7571 41.1938 49.6791 41.324 49.6271C42.0013 49.3411 42.7046 49.029 43.434 48.691C44.1634 48.3268 44.9057 48.145 45.6609 48.1455C46.1817 48.1458 46.5722 48.3284 46.8324 48.6931C47.1187 49.0318 47.2616 49.4356 47.2613 49.9043C47.2611 50.2429 47.1308 50.4902 46.8703 50.6463C46.6097 50.8024 46.3362 50.9454 46.0497 51.0754L38.9386 53.7272C38.8605 53.7792 38.7823 53.8312 38.7041 53.8833C38.626 53.9093 38.5478 53.9613 38.4697 54.0394L38.4689 55.2894C38.4683 56.2008 38.4807 57.1514 38.5061 58.141C38.5576 59.1045 38.6481 60.0421 38.7778 60.9536C38.9075 61.735 39.0502 62.5033 39.206 63.2586C39.3618 64.0139 39.4394 64.7822 39.4389 65.5634C39.4388 65.7978 39.3604 66.1103 39.2039 66.5008C39.0474 66.8913 38.7999 67.0865 38.4614 67.0862C37.7583 67.0858 37.1855 66.8771 36.743 66.4602C36.3006 66.0432 36.0535 65.4832 36.0019 64.78C35.8726 63.4258 35.7303 61.9413 35.575 60.3266C35.4459 58.7119 35.3166 57.1624 35.1874 55.6779L35.0311 55.6778Z" fill="white"/>
<path d="M55.0372 63.3858C54.8546 63.7763 54.6721 64.2059 54.4895 64.6745C54.3069 65.1171 54.0983 65.5206 53.8637 65.8851C53.6291 66.2495 53.3424 66.5618 53.0037 66.822C52.6651 67.0562 52.2353 67.1731 51.7145 67.1728C50.803 67.1722 50.0479 66.9504 49.4493 66.5073C48.8506 66.0382 48.3562 65.4649 47.966 64.7876C47.6018 64.0842 47.3419 63.3289 47.1862 62.5215C47.0304 61.7141 46.9528 60.9588 46.9532 60.2557L47.2717 50.8028C47.2458 50.6205 47.285 50.4382 47.3893 50.256C47.5196 50.0477 47.676 49.8655 47.8583 49.7094C48.0668 49.5272 48.2882 49.3841 48.5227 49.2801C48.7832 49.1761 49.0176 49.1242 49.2259 49.1243C49.8249 49.1247 50.3326 49.3203 50.749 49.7112C51.1654 50.0761 51.3734 50.558 51.3731 51.1569L51.3728 51.5476C51.0861 52.0161 50.8383 52.628 50.6295 53.383C50.4206 54.1381 50.2509 54.9583 50.1201 55.8436C50.0154 56.703 49.9497 57.5883 49.9231 58.4998C49.8965 59.4112 49.922 60.2446 49.9996 60.9998C50.1033 61.7551 50.2591 62.4062 50.4671 62.9532C50.6751 63.4742 50.9484 63.7869 51.2869 63.8913C51.4171 63.8913 51.6124 63.8264 51.8729 63.6963C52.1595 63.5663 52.4591 63.3191 52.7718 62.9547C53.0846 62.5903 53.4104 62.0827 53.7493 61.4319C54.0883 60.755 54.3884 59.8698 54.6495 58.7762C54.9106 57.6826 55.1067 56.3546 55.2379 54.7922C55.3691 53.2298 55.4094 51.3548 55.3587 49.1673C55.463 48.8809 55.6064 48.7247 55.7887 48.6988C55.997 48.6729 56.2054 48.66 56.4137 48.6601C56.6481 48.6603 56.8434 48.6734 56.9996 48.6996C57.1559 48.6997 57.3251 48.7909 57.5073 48.9733C57.6374 49.1036 57.7805 49.299 57.9366 49.5595C58.0927 49.8201 58.1707 49.9633 58.1707 49.9894L58.8238 67.2945C58.8235 67.6851 58.7191 68.0106 58.5106 68.2708C58.3021 68.5311 58.0026 68.6611 57.612 68.6609C57.4817 68.6608 57.3255 68.6477 57.1432 68.6215C56.961 68.5954 56.7787 68.5432 56.5965 68.4649C56.4142 68.3867 56.245 68.2824 56.0888 68.1521C55.9587 68.0479 55.8807 67.9176 55.8547 67.7613L55.1931 63.8547L55.0372 63.3858Z" fill="white"/>
<path d="M61.5312 65.4212C61.4797 64.4837 61.3894 63.2336 61.2601 61.671C61.157 60.0824 61.0278 58.4417 60.8726 56.7489C60.7435 55.0561 60.6013 53.4545 60.446 51.9439C60.2907 50.4334 60.1612 49.2615 60.0576 48.4281C60.0578 48.0895 60.2142 47.8683 60.5268 47.7643C60.8393 47.6603 61.1389 47.6084 61.4253 47.6086C61.7899 47.6089 62.1674 47.7133 62.5579 47.9218C62.9745 48.1304 63.2347 48.4171 63.3386 48.7817C63.3386 48.8859 63.3515 49.0812 63.3773 49.3677C63.4032 49.6281 63.416 49.9016 63.4159 50.188C63.4417 50.4745 63.4676 50.761 63.4934 51.0474C63.5193 51.3079 63.5322 51.4902 63.5322 51.5943C63.5321 51.7506 63.532 51.8678 63.5319 51.9459C63.5319 52.024 63.5318 52.1021 63.5318 52.1803C63.5317 52.2324 63.5447 52.2975 63.5707 52.3756C63.5967 52.4538 63.6357 52.584 63.6877 52.7663C63.7398 52.7143 63.7919 52.6492 63.844 52.5711C63.9222 52.493 63.9743 52.441 64.0004 52.4149C64.4174 51.8163 64.8214 51.2957 65.2123 50.8532C65.6032 50.3847 66.0072 49.9553 66.4241 49.5649C66.841 49.1485 67.297 48.7191 67.7921 48.2767C68.3132 47.8083 68.9125 47.2748 69.59 46.6763C69.7463 46.5462 69.8635 46.4551 69.9417 46.4031C70.0199 46.325 70.085 46.273 70.1371 46.247C70.2153 46.1949 70.2934 46.1689 70.3715 46.169C70.4497 46.143 70.5539 46.13 70.6841 46.1301C71.1268 46.1304 71.5694 46.2869 72.0119 46.5997C72.4805 46.8865 72.7146 47.2903 72.7142 47.8111C72.7141 47.9934 72.6489 48.1887 72.5186 48.3969C72.3882 48.5791 72.2319 48.7613 72.0495 48.9435C71.8671 49.0996 71.6717 49.2427 71.4633 49.3728C71.2809 49.5029 71.1115 49.5939 70.9553 49.6459C70.2778 50.2444 69.5612 50.9341 68.8055 51.7149C68.0498 52.4696 67.3462 53.2895 66.6946 54.1745C66.043 55.0595 65.5085 55.9836 65.0913 56.9469C64.674 57.9102 64.465 58.8736 64.4644 59.8371C64.4639 60.7225 64.5284 61.595 64.6581 62.4544C64.7877 63.3139 64.8523 64.1863 64.8517 65.0717L64.8509 66.4389C64.6424 66.6471 64.46 66.8163 64.3037 66.9464C64.1473 67.0765 63.9259 67.1415 63.6395 67.1413C63.1968 67.141 62.7672 66.9584 62.3508 66.5936C61.9343 66.2027 61.6612 65.8119 61.5312 65.4212Z" fill="white"/>
<path d="M72.6431 54.0611L72.6431 53.9829C72.6433 53.7746 72.7085 53.5663 72.8389 53.3581C72.9953 53.1238 73.1516 52.9286 73.308 52.7724L73.3092 50.7802C73.3106 48.6188 73.2729 46.5094 73.1961 44.452C73.1453 42.3947 73.0164 40.2722 72.8095 38.0846C72.8097 37.7461 72.927 37.4987 73.1615 37.3426C73.396 37.1605 73.6435 37.0695 73.9039 37.0697C74.6331 36.9399 75.1799 37.1095 75.5442 37.5785C75.9345 38.0475 76.2075 38.6857 76.3633 39.4931C76.519 40.3005 76.5966 41.212 76.5959 42.2276C76.5953 43.2172 76.5686 44.1807 76.516 45.1182C76.4893 46.0557 76.4758 46.889 76.4753 47.6182C76.4748 48.3473 76.5657 48.8422 76.7478 49.1027C77.0864 48.9727 77.2557 48.9208 77.2557 48.9468C77.2818 48.9468 77.2817 48.9598 77.2557 48.9859C77.2557 48.9859 77.2817 48.9598 77.3339 48.9078C77.412 48.8297 77.6596 48.6345 78.0764 48.3223C78.6496 47.88 79.3139 47.607 80.0691 47.5033C80.8505 47.3736 81.5797 47.3089 82.2568 47.3093C83.8451 47.5447 84.9516 48.0402 85.5761 48.7958C86.2007 49.5254 86.4735 50.437 86.3947 51.5307C86.3159 52.5984 85.9375 53.7961 85.2596 55.1237C84.6077 56.4254 83.7866 57.7791 82.7961 59.1847C81.8056 60.5643 80.711 61.9438 79.5122 63.3232C78.3134 64.6766 77.1538 65.9519 76.0332 67.1491C75.7989 67.149 75.5254 67.1098 75.213 67.0314C74.9266 66.9531 74.6532 66.8358 74.3929 66.6794C74.1326 66.5229 73.9114 66.3275 73.7292 66.093C73.5471 65.8585 73.4561 65.585 73.4563 65.2725L73.4628 55.0772L72.6431 54.0611ZM76.7427 57.0715C76.7427 57.1496 76.7426 57.3319 76.7424 57.6183C76.7683 57.9048 76.7941 58.2173 76.8199 58.5559C76.8458 58.8684 76.8586 59.1679 76.8584 59.4544C76.8843 59.7408 76.8972 59.9231 76.8971 60.0013C76.8971 60.0794 76.897 60.2226 76.8969 60.4309C76.8968 60.6132 76.8966 60.8216 76.8965 61.0559C76.9224 61.2643 76.9353 61.4726 76.9351 61.681C76.935 61.8633 76.9349 61.9935 76.9349 62.0716C77.2214 62.0197 77.6253 61.6554 78.1465 60.9786C78.6678 60.3019 79.2021 59.5209 79.7496 58.6359C80.297 57.7248 80.8054 56.8136 81.2747 55.9025C81.7441 54.9913 82.0961 54.2754 82.3308 53.7547C82.4351 53.4944 82.5395 53.1819 82.6439 52.8174C82.7483 52.4529 82.8136 52.0883 82.8399 51.7238C82.8922 51.3332 82.8664 50.9816 82.7624 50.669C82.6845 50.3565 82.5024 50.109 82.216 49.9265C81.7473 49.9262 81.2394 50.0431 80.6924 50.2771C80.1714 50.5111 79.6504 50.8103 79.1293 51.1745C78.6343 51.5388 78.1783 51.9422 77.7613 52.3846C77.3705 52.801 77.0837 53.2045 76.9012 53.595C76.8751 53.7252 76.8489 53.9596 76.8226 54.2981C76.8224 54.6106 76.8092 54.9491 76.7829 55.3137C76.7827 55.6783 76.7695 56.0298 76.7432 56.3683C76.743 56.7069 76.7428 56.9413 76.7427 57.0715Z" fill="white"/>
<path d="M86.4386 61.1401L87.8903 51.102C87.9426 50.7635 88.086 50.5162 88.3204 50.3601C88.581 50.204 88.8675 50.126 89.18 50.1262C89.7529 50.1266 90.2085 50.2962 90.5468 50.6349C90.8852 50.9476 91.1714 51.3384 91.4055 51.8073L91.4445 51.8074C91.757 51.8076 92.0305 51.7556 92.2649 51.6516C92.5254 51.5216 92.838 51.4567 93.2026 51.4569C94.0359 51.4574 94.7389 51.7183 95.3114 52.2395C95.9101 52.7607 96.3914 53.399 96.7555 54.1545C97.1197 54.8839 97.3796 55.6783 97.5353 56.5378C97.717 57.3973 97.8077 58.1525 97.8073 58.8036C97.8068 59.5848 97.5979 60.4571 97.1806 61.4204C96.7894 62.3837 96.2549 63.2948 95.5773 64.1537C94.9257 65.0127 94.1831 65.7284 93.3494 66.3008C92.5157 66.8731 91.6692 67.1591 90.8098 67.1585C90.0285 67.158 89.3516 66.9753 88.7789 66.6104C88.2322 66.2454 87.7768 65.7894 87.4126 65.2423C87.0744 64.6692 86.8274 64.031 86.6716 63.3278C86.5158 62.6245 86.4381 61.9344 86.4385 61.2573L86.4386 61.1401ZM89.7197 61.3766C89.7716 61.637 89.8235 61.9365 89.8754 62.2751C89.9273 62.6137 90.0052 62.9262 90.1092 63.2128C90.2132 63.4732 90.3563 63.6817 90.5385 63.838C90.7467 63.9684 91.0332 63.9686 91.3978 63.8386C91.7366 63.5263 92.1014 63.175 92.4923 62.7846C92.8831 62.3942 93.248 61.9778 93.5868 61.5353C93.9517 61.0928 94.2514 60.6242 94.4861 60.1296C94.7208 59.635 94.8383 59.1142 94.8387 58.5673C94.9434 57.682 94.8788 56.8746 94.6449 56.1453C94.411 55.39 94.0728 54.8559 93.6303 54.5431C93.2138 54.2043 92.7321 54.1649 92.1851 54.425C91.638 54.659 91.0907 55.3228 90.5432 56.4162C90.2302 57.093 90.0084 57.8872 89.8776 58.7986C89.7729 59.6839 89.7203 60.5042 89.7198 61.2594L89.7197 61.3766Z" fill="white"/>
</svg>
