<svg width="591" height="112" viewBox="0 0 591 112" fill="none" xmlns="http://www.w3.org/2000/svg">
<path d="M47.8666 30.5407C48.4539 28.3872 47.6708 27.0167 45.5173 26.4294H73.415L70.7721 32.009L70.4784 32.8899L68.7165 36.1202L67.2482 39.3505C66.6609 40.1336 66.1714 41.1124 65.7799 42.2871L62.256 49.3349C62.0602 49.9222 61.4729 51.1948 60.494 53.1525L59.9067 54.0335L54.9145 64.3116C54.3271 65.4862 53.9356 66.4161 53.7398 67.1014C53.544 67.7866 52.9567 69.108 51.9779 71.0658C51.3905 72.4362 50.8032 73.6108 50.2159 74.5897L42.5807 93.0903L40.5251 96.9079L38.7631 98.9635L35.8265 102.194C25.4505 109.829 13.5084 112.08 0 108.948C0.783094 108.752 1.66407 108.361 2.64294 107.773C4.01336 107.382 5.67743 106.697 7.63516 105.718L8.51615 105.424C8.71192 105.228 9.10347 105.032 9.69079 104.837L18.2069 91.3283C18.4027 91.1325 18.5985 90.741 18.7943 90.1537L19.9689 88.0981L20.8499 86.9234C22.0245 85.1615 23.297 82.7143 24.6675 79.5819C24.8632 79.3861 25.059 78.9946 25.2548 78.4073L29.6597 69.8911C30.0512 68.9123 30.6385 67.8355 31.4216 66.6609C31.8132 65.4862 32.4984 64.2137 33.4773 62.8433L38.4695 52.8588L46.9856 33.4773L47.2793 32.3026L47.8666 30.5407ZM55.5018 12.6274C55.1102 6.36264 58.2426 2.15351 64.8989 0C72.5341 0 76.3516 4.01336 76.3516 12.0401C74.9812 19.4795 70.2827 22.4161 62.256 20.8499C59.1236 19.2837 56.8722 16.5429 55.5018 12.6274Z" fill="white"/>
<path d="M113.321 50.4361C116.844 41.2837 116.086 36.3404 111.045 35.6063C100.326 40.9411 94.771 51.0969 94.3794 66.0735C94.771 67.1014 95.4562 68.1292 96.4351 69.157C98.197 69.3528 99.9835 68.8388 101.794 67.6153C102.969 66.7832 104.144 65.5352 105.318 63.8711L106.493 62.623L106.787 61.9623C107.765 60.9345 108.769 59.4907 109.797 57.6308L113.321 50.4361ZM98.4907 24.227H104.437C104.242 25.4995 103.654 26.9678 102.675 28.6319C114.715 22.8076 124.749 24.227 132.776 32.8899C139.53 44.7832 136.887 56.2604 124.847 67.3216C115.205 77.306 103.067 81.4662 88.4328 79.8022C86.6709 79.1659 84.811 78.2115 82.8533 76.939C81.8744 78.4073 80.9934 80.3895 80.2103 82.8856L79.2559 85.088L78.375 87.2905L76.0257 92.2827L75.732 93.5308L71.0335 104.396H46.1458C64.3037 76.9879 76.0502 51.9289 81.385 29.2192C80.9934 27.9956 80.2838 26.5518 79.2559 24.8877L97.0224 24.594L98.4907 24.227Z" fill="white"/>
<path d="M170.552 40.5251C172.02 36.6096 170.283 34.8477 165.339 35.2392C162.452 36.267 159.858 38.2248 157.557 41.1124C159.613 41.5529 162.207 41.6508 165.339 41.4061H167.762C168.398 41.2103 169.23 41.1124 170.258 41.1124L170.552 40.5251ZM127.237 57.5574C133.012 40.623 145.591 29.6842 164.972 24.7409C186.654 22.881 194.926 31.7398 189.787 51.3171L151.978 52.8588C151.391 55.3549 151.293 58.2426 151.684 61.5218C152.125 62.9901 152.957 64.4339 154.18 65.8533C162.207 68.5452 170.772 68.3494 179.876 65.266C179.435 65.9022 178.823 66.6364 178.04 67.4684C166.881 77.9913 153.25 81.5886 137.148 78.2604C134.897 77.2326 132.621 75.593 130.321 73.3416C129.293 72.0691 128.461 70.405 127.824 68.3494L127.237 67.1014V57.5574Z" fill="white"/>
<path d="M187.185 86.9968C183.71 95.8066 187.063 100.701 197.243 101.68C205.661 101.68 210.898 98.0091 212.954 90.6676C212.66 89.8845 212.122 89.0769 211.338 88.2449C210.066 87.7555 208.622 87.5842 207.007 87.731L206.273 87.5107H203.703L202.749 87.2905H188.36L187.185 86.9968ZM224.48 45.4439C226.046 38.5918 224.284 34.1869 219.194 32.2292C213.614 34.3827 210.115 38.7142 208.695 45.2237C206.787 50.4117 208.133 54.6453 212.733 57.9245C214.006 57.9245 215.45 57.6063 217.065 56.9701C220.393 54.1803 222.865 50.3383 224.48 45.4439ZM247.385 17.326H255.241C256.219 17.326 257.174 17.5707 258.104 18.0601C257.957 18.5495 257.639 19.039 257.149 19.5284C256.66 20.0178 256.268 20.5073 255.975 20.9967L254.8 22.2448L253.552 23.7131L252.598 24.9611L249.294 28.5585L246.431 28.118L244.963 27.8243L243.274 27.6041L241.365 27.3838C240.582 27.188 240.044 27.0167 239.75 26.8699L238.502 27.8243C245.697 37.8088 244.351 47.1814 234.464 55.9423C225.703 64.1158 215.034 67.2971 202.455 65.4862C201.183 66.1714 200.155 67.2482 199.372 68.7165C199.519 69.6954 200.081 70.4295 201.06 70.9189C202.333 71.2126 203.923 71.4573 205.832 71.6531H206.566L209.136 71.8733H220.148L226.388 73.048L228.518 74.0758C234.88 80.4384 234.954 87.7799 228.738 96.1003C221.886 104.861 212.586 109.902 200.84 111.224C192.715 112.839 184.346 111.933 175.732 108.507C172.061 106.892 169.125 104.127 166.922 100.212L170.96 96.3205L171.915 95.5864C172.698 94.6075 173.725 93.6287 174.998 92.6498L177.421 90.2271L179.329 88.4651C179.819 87.8289 180.455 87.266 181.238 86.7766L182.927 85.088C181.018 82.4451 179.819 79.3372 179.329 75.7643C182.021 72.0446 185.839 69.0346 190.782 66.7343C192.397 65.7554 193.915 64.4584 195.334 62.8433C185.301 53.0546 187.038 42.7031 200.546 31.7887C208.671 26.0623 218.142 23.6152 228.958 24.4472L232.776 23.7131L239.236 20.9967L240.925 20.0423C241.708 19.406 242.833 18.6719 244.302 17.8399L247.385 17.326Z" fill="white"/>
<path d="M241.773 66.2204C245.689 61.9134 250.779 59.0746 257.044 57.7042C265.07 56.7254 268.79 59.9556 268.203 67.395C263.504 76.009 255.967 79.9245 245.591 79.1414C238.935 77.1837 237.662 72.8767 241.773 66.2204Z" fill="white"/>
<path d="M345.738 5.72637L346.913 6.02003C347.108 6.80313 347.01 7.68411 346.619 8.66298L344.857 11.8932C344.661 12.4806 344.27 13.2637 343.682 14.2425C343.291 15.6129 342.605 17.1791 341.627 18.9411L341.039 19.8221L338.69 24.5206C340.452 24.7164 342.508 24.6185 344.857 24.227H347.5L348.087 23.9333H351.317C352.296 23.7375 352.981 23.7375 353.373 23.9333C352.394 24.5206 351.22 25.4016 349.849 26.5762L348.087 27.7509L346.619 28.9255C345.836 29.5129 345.248 29.9044 344.857 30.1002L340.452 33.3304L339.865 33.9178H334.285L333.11 35.9734C332.915 36.5607 332.523 37.3438 331.936 38.3227L331.642 39.2036L326.65 49.1881C326.454 49.3839 326.258 49.7754 326.063 50.3627C325.28 51.5374 324.594 53.0057 324.007 54.7676L320.777 60.9345L320.483 61.8155C320.092 63.1859 320.092 64.6542 320.483 66.2204C323.811 68.1781 328.02 69.0591 333.11 68.8633C333.698 69.0591 334.089 69.4506 334.285 70.038C332.132 71.6041 329.293 72.9746 325.769 74.1492L323.713 75.0302L321.951 75.9112L318.721 77.0858C317.742 77.6731 317.057 77.9668 316.666 77.9668L310.792 80.6097C310.009 80.8055 309.128 81.197 308.149 81.7844L305.213 82.959C304.234 83.3506 303.059 83.5463 301.689 83.5463C298.165 82.1759 295.718 79.533 294.347 75.6175V70.9189C294.739 69.157 295.62 67.0035 296.99 64.4584L301.395 55.6486C301.787 54.474 302.472 53.0057 303.451 51.2437L308.443 41.2593L308.737 40.3783L310.792 36.267L311.38 35.3861L311.967 33.9178H303.451C303.647 33.1347 304.038 32.1558 304.625 30.9812L311.086 28.3382L313.142 27.4572L314.904 26.5762C316.666 24.6185 318.134 22.0735 319.308 18.9411L319.602 18.3538L321.07 15.1235L321.658 14.2425L322.832 13.0679L330.761 10.4249C331.544 10.0334 332.523 9.73973 333.698 9.54396L341.92 6.90101L344.563 6.02003L345.738 5.72637Z" fill="white"/>
<path d="M349.89 23.2726H369.859C371.425 23.0768 373.383 23.1747 375.732 23.5662L376.32 24.7409C375.732 28.4606 374.264 32.2782 371.915 36.1936L367.216 45.5907L366.922 46.4717L363.986 52.6386C363.007 54.2048 362.028 56.2604 361.049 58.8055L360.462 60.5674V62.9167C361.441 64.0913 362.615 65.0702 363.986 65.8533C367.901 66.4406 371.915 65.7554 376.026 63.7977C377.005 62.8188 377.984 61.5463 378.963 59.9801L381.899 53.8132L382.193 52.9323L387.772 41.4795L388.066 40.5985L390.415 36.1936L390.709 35.019L392.177 32.376C392.373 31.5929 392.96 30.2225 393.939 28.2648C392.569 26.6986 390.709 25.7197 388.36 25.3282L388.653 23.8599C391.59 23.0768 395.408 22.881 400.106 23.2726H413.321L415.376 24.1536C415.572 25.3282 415.474 26.5028 415.083 27.6775L413.614 31.2014C413.419 31.7887 413.027 32.5718 412.44 33.5507C411.853 34.7253 411.461 35.7042 411.265 36.4873L409.503 39.7175L409.21 40.8922C408.622 41.6753 408.133 42.6541 407.741 43.8288C407.545 44.0246 407.35 44.4161 407.154 45.0034C406.958 45.1992 406.762 45.5907 406.567 46.1781L404.217 50.583L403.336 52.6386L400.987 57.3372C400.791 57.9245 400.4 58.7076 399.812 59.6864L398.344 62.623C396.974 65.1681 395.603 68.3984 394.233 72.3138C395.016 74.2716 396.484 75.642 398.638 76.4251L398.344 77.8934L371.327 78.187C371.327 75.2504 372.306 72.2159 374.264 69.0836L369.565 72.0202L368.097 72.9011L367.216 73.1948C358.211 80.2426 347.932 81.3194 336.382 76.4251C335.795 75.8377 335.207 74.9568 334.62 73.7821C334.62 72.6075 334.816 71.2371 335.207 69.6709L336.382 67.0279L336.969 66.147L337.85 63.7977L339.318 60.5674L345.779 47.3527L346.66 45.0034L347.247 44.1224L348.422 41.1858C349.205 40.0112 349.89 38.5429 350.478 36.7809L354.295 28.8521C353.316 26.6986 351.554 25.4261 349.009 25.0345L349.89 23.2726Z" fill="white"/>
<path d="M475.544 22.5384H477.6C477.404 23.6641 476.915 24.7898 476.132 25.9155L472.021 35.019C471.433 35.7531 470.65 37.3683 469.671 39.8644C459.981 36.4383 451.685 39.0813 444.784 47.7932C437.491 56.3093 434.432 66.7098 435.607 78.9946H401.322C415.515 64.9968 424.692 47.4017 428.853 26.2092H456.016L457.778 26.5028L455.429 29.8799L459.32 27.8977C460.103 27.7019 460.984 27.3349 461.963 26.7965L464.899 25.9155C465.095 25.7197 465.78 25.4506 466.955 25.1079C467.738 24.7164 468.741 24.4227 469.965 24.227L475.544 22.5384Z" fill="white"/>
<path d="M482.78 69.0101C484.102 70.1358 485.668 70.6987 487.479 70.6987C497.855 68.8388 505.735 62.5496 511.118 51.831C515.377 44.5874 513.615 40.3293 505.833 39.0568L502.235 39.5707H500.547L498.858 39.8644L497.757 40.158L496.142 40.7454H495.261L494.16 42.3605C493.621 43.0946 492.985 44.2203 492.251 45.7376L482.78 68.2026V69.0101ZM459.728 79.5819C458.651 79.7777 457.55 79.5819 456.424 78.9946L493.646 4.03783L494.16 3.52392C496.949 2.9366 500.571 2.74083 505.025 2.9366H519.708L519.194 4.91881C516.209 5.65296 513.517 7.12126 511.118 9.32371L509.136 12.4071L499.152 31.8621L498.344 33.1836L504.731 30.4672L506.934 29.366C507.472 29.1702 508.206 28.7787 509.136 28.1914L510.017 27.9711C510.947 27.3838 512.146 26.821 513.615 26.2826L514.422 25.6953C525.337 23.297 532.556 26.9189 536.08 36.5607C536.275 37.8332 536.275 39.4973 536.08 41.5529L535.786 42.9478V43.7554C525.459 69.3038 505.857 80.781 476.98 78.187C475.316 78.5786 473.187 78.6765 470.593 78.4807L470.006 78.7743H466.996L463.913 78.9946L460.829 79.2883L459.728 79.5819Z" fill="white"/>
<path d="M565.854 36.7075C564.728 35.4839 563.211 34.7498 561.302 34.5051C553.863 36.0713 548.454 40.9411 545.077 49.1147C542.63 54.009 541.578 59.4662 541.92 65.4862L542.434 67.3216L543.389 69.157C544.661 70.3806 546.179 71.1147 547.941 71.3594C555.429 70.2337 560.617 65.5352 563.505 57.2637C563.847 56.8232 564.067 56.2604 564.165 55.5752C564.606 54.7921 564.948 53.7888 565.193 52.5652L566.368 48.6008L566.515 47.573L566.882 44.93L567.028 44.5629V43.0212L567.175 41.6997L567.028 39.8644C566.784 38.9834 566.392 37.9311 565.854 36.7075ZM530.174 42.5073C539.424 31.9845 551.734 25.6219 567.102 23.4194C587.022 23.1257 594.339 32.0579 589.053 50.2159C584.501 59.8577 577.037 67.7376 566.661 73.8555C556.579 80.4629 545.249 82.3962 532.67 79.6553C525.867 77.8444 521.927 73.2193 520.85 65.7799C520.557 57.3127 523.665 49.5552 530.174 42.5073Z" fill="white"/>
</svg>
